<mxfile host="app.diagrams.net" modified="2020-10-12T08:16:04.302Z" agent="5.0 (Windows NT 10.0; WOW64) AppleWebKit/537.36 (KHTML, like Gecko) Chrome/85.0.4183.121 Safari/537.36" etag="FQvqX-h0N4Q6rn1kgo3l" version="13.7.9" type="github">
  <diagram id="YKLCPufY7qqDA6qSElP3" name="Page-1">
    <mxGraphModel dx="412" dy="563" grid="1" gridSize="10" guides="1" tooltips="1" connect="1" arrows="1" fold="1" page="1" pageScale="1" pageWidth="827" pageHeight="1169" math="0" shadow="0">
      <root>
        <mxCell id="0" />
        <mxCell id="1" parent="0" />
        <mxCell id="gXHBFg5XmKjF6c5Hs6s2-2" value="S2" style="ellipse;whiteSpace=wrap;html=1;aspect=fixed;" vertex="1" parent="1">
          <mxGeometry x="70" y="190" width="80" height="80" as="geometry" />
        </mxCell>
        <mxCell id="gXHBFg5XmKjF6c5Hs6s2-5" style="edgeStyle=orthogonalEdgeStyle;rounded=0;orthogonalLoop=1;jettySize=auto;html=1;exitX=0;exitY=0.5;exitDx=0;exitDy=0;curved=1;" edge="1" parent="1" source="gXHBFg5XmKjF6c5Hs6s2-3" target="gXHBFg5XmKjF6c5Hs6s2-2">
          <mxGeometry relative="1" as="geometry" />
        </mxCell>
        <mxCell id="gXHBFg5XmKjF6c5Hs6s2-13" value="10/10" style="edgeLabel;html=1;align=center;verticalAlign=middle;resizable=0;points=[];" vertex="1" connectable="0" parent="gXHBFg5XmKjF6c5Hs6s2-5">
          <mxGeometry x="-0.3976" y="27" relative="1" as="geometry">
            <mxPoint as="offset" />
          </mxGeometry>
        </mxCell>
        <mxCell id="gXHBFg5XmKjF6c5Hs6s2-7" style="edgeStyle=orthogonalEdgeStyle;curved=1;rounded=0;orthogonalLoop=1;jettySize=auto;html=1;exitX=1;exitY=1;exitDx=0;exitDy=0;entryX=0.5;entryY=0;entryDx=0;entryDy=0;" edge="1" parent="1" source="gXHBFg5XmKjF6c5Hs6s2-3" target="gXHBFg5XmKjF6c5Hs6s2-4">
          <mxGeometry relative="1" as="geometry" />
        </mxCell>
        <mxCell id="gXHBFg5XmKjF6c5Hs6s2-15" value="11/01" style="edgeLabel;html=1;align=center;verticalAlign=middle;resizable=0;points=[];" vertex="1" connectable="0" parent="gXHBFg5XmKjF6c5Hs6s2-7">
          <mxGeometry x="-0.2727" y="-13" relative="1" as="geometry">
            <mxPoint as="offset" />
          </mxGeometry>
        </mxCell>
        <mxCell id="gXHBFg5XmKjF6c5Hs6s2-3" value="S0" style="ellipse;whiteSpace=wrap;html=1;aspect=fixed;" vertex="1" parent="1">
          <mxGeometry x="180" y="50" width="80" height="80" as="geometry" />
        </mxCell>
        <mxCell id="gXHBFg5XmKjF6c5Hs6s2-4" value="S1" style="ellipse;whiteSpace=wrap;html=1;aspect=fixed;" vertex="1" parent="1">
          <mxGeometry x="270" y="190" width="80" height="80" as="geometry" />
        </mxCell>
        <mxCell id="gXHBFg5XmKjF6c5Hs6s2-6" style="edgeStyle=orthogonalEdgeStyle;curved=1;rounded=0;orthogonalLoop=1;jettySize=auto;html=1;exitX=0.5;exitY=0;exitDx=0;exitDy=0;entryX=1;entryY=0.5;entryDx=0;entryDy=0;" edge="1" parent="1" source="gXHBFg5XmKjF6c5Hs6s2-3" target="gXHBFg5XmKjF6c5Hs6s2-3">
          <mxGeometry relative="1" as="geometry" />
        </mxCell>
        <mxCell id="gXHBFg5XmKjF6c5Hs6s2-14" value="0X/00" style="edgeLabel;html=1;align=center;verticalAlign=middle;resizable=0;points=[];" vertex="1" connectable="0" parent="gXHBFg5XmKjF6c5Hs6s2-6">
          <mxGeometry x="-0.0775" y="-1" relative="1" as="geometry">
            <mxPoint as="offset" />
          </mxGeometry>
        </mxCell>
        <mxCell id="gXHBFg5XmKjF6c5Hs6s2-9" style="edgeStyle=orthogonalEdgeStyle;curved=1;rounded=0;orthogonalLoop=1;jettySize=auto;html=1;exitX=1;exitY=0.5;exitDx=0;exitDy=0;entryX=0.5;entryY=1;entryDx=0;entryDy=0;" edge="1" parent="1" source="gXHBFg5XmKjF6c5Hs6s2-4" target="gXHBFg5XmKjF6c5Hs6s2-4">
          <mxGeometry relative="1" as="geometry" />
        </mxCell>
        <mxCell id="gXHBFg5XmKjF6c5Hs6s2-16" value="XX/01" style="edgeLabel;html=1;align=center;verticalAlign=middle;resizable=0;points=[];" vertex="1" connectable="0" parent="gXHBFg5XmKjF6c5Hs6s2-9">
          <mxGeometry x="-0.7525" y="-13" relative="1" as="geometry">
            <mxPoint x="13" y="13" as="offset" />
          </mxGeometry>
        </mxCell>
        <mxCell id="gXHBFg5XmKjF6c5Hs6s2-11" style="edgeStyle=orthogonalEdgeStyle;curved=1;rounded=0;orthogonalLoop=1;jettySize=auto;html=1;exitX=1;exitY=0.5;exitDx=0;exitDy=0;entryX=0.5;entryY=1;entryDx=0;entryDy=0;" edge="1" parent="1" source="gXHBFg5XmKjF6c5Hs6s2-2" target="gXHBFg5XmKjF6c5Hs6s2-2">
          <mxGeometry relative="1" as="geometry" />
        </mxCell>
        <mxCell id="gXHBFg5XmKjF6c5Hs6s2-17" value="XX/10" style="edgeLabel;html=1;align=center;verticalAlign=middle;resizable=0;points=[];" vertex="1" connectable="0" parent="gXHBFg5XmKjF6c5Hs6s2-11">
          <mxGeometry x="-0.505" relative="1" as="geometry">
            <mxPoint as="offset" />
          </mxGeometry>
        </mxCell>
      </root>
    </mxGraphModel>
  </diagram>
</mxfile>
